#N canvas 91 69 1084 498 10;
#X obj -642 379 line;
#X obj -643 161 nbx 5 14 -1e+37 1e+37 0 0 empty empty empty 0 -8 0
10 -262144 -1 -1 87 256;
#X obj -632 -107 tgl 15 0 empty empty empty 17 7 0 10 -262144 -1 -1
0 1;
#X obj -646 227 timer;
#X obj -642 353 pack;
#X obj -84 -132 loadbang;
#N canvas 756 145 604 475 vaEtViens 0;
#X msg -202 286 bang;
#X obj -201 263 bng 15 250 50 0 empty empty empty 17 7 0 10 -262144
-1 -1;
#X msg -119 293 bang;
#X obj -119 269 bng 15 250 50 0 empty empty empty 17 7 0 10 -262144
-1 -1;
#X text -182 261 +;
#X text -97 266 -;
#X obj -71 143 tgl 15 0 empty empty empty 17 7 0 10 -262144 -1 -1 1
1;
#X obj -173 191 change;
#X obj -120 238 spigot;
#X msg -174 158 1;
#X msg -183 243 0;
#X obj -212 77 t b b b;
#X obj -71 92 loadbang;
#X msg -71 118 1;
#X obj -214 37 inlet;
#X obj -212 520 outlet;
#X msg -140 395 2;
#X msg -198 334 1;
#X obj -70 182 metro 5000;
#X obj -33 353 outlet;
#X msg -173 106 500;
#X obj -175 132 delay 500;
#X obj -195 428 cyclone/counter 2 1 99;
#X connect 0 0 17 0;
#X connect 1 0 0 0;
#X connect 2 0 17 0;
#X connect 2 0 19 0;
#X connect 3 0 2 0;
#X connect 6 0 18 0;
#X connect 7 0 8 1;
#X connect 8 0 3 0;
#X connect 9 0 7 0;
#X connect 10 0 7 0;
#X connect 11 0 1 0;
#X connect 11 1 10 0;
#X connect 11 2 20 0;
#X connect 12 0 13 0;
#X connect 13 0 6 0;
#X connect 14 0 11 0;
#X connect 16 0 22 1;
#X connect 17 0 22 0;
#X connect 18 0 8 0;
#X connect 20 0 21 0;
#X connect 21 0 9 0;
#X connect 22 0 15 0;
#X restore -643 123 pd vaEtViens;
#X obj -632 -75 metro 200;
#X obj -621 -56 bng 15 250 50 0 empty empty empty 17 7 0 10 -262144
-1 -1;
#X obj -637 780 pack 0 0 0;
#X obj -84 -112 \$0;
#X obj -118 -130 bng 15 250 50 0 empty empty empty 17 7 0 10 -262144
-1 -1;
#X obj -629 290 tabread arrayR_\$0;
#X obj -642 696 int;
#X obj -777 847 outlet;
#X obj -759 -89 inlet;
#X obj -731 747 loadbang;
#X obj -7 -134 table arrayR_\$0 128;
#X obj 118 -133 table arrayG_\$0 128;
#X obj 248 -133 table arrayB_\$0 128;
#X msg -10 -110 \; arrayR_\$1 sinesum 160 0.1 0.2 0.1 0.5;
#X msg -11 -72 \; arrayG_\$1 cosinesum 160 0.1 0.1 0.1 0.5;
#X msg -13 -32 \; arrayB_\$1 sinesum 160 0.2 0.2 0.2 0.2 0.2 0.2 0.2
.;
#X obj -642 61 > 1;
#X obj -642 86 sel 1;
#X obj -643 34 random 3;
#X obj -758 -21 t b b b b b;
#X obj -643 187 t b b a;
#X obj -645 262 t a, f 9;
#X obj -643 554 vsl 15 128 0 255 0 0 empty empty red 0 -9 0 10 -262144
-1 -1 0 1;
#X obj -524 421 line;
#X obj -522 157 nbx 5 14 -1e+37 1e+37 0 0 empty empty empty 0 -8 0
10 -262144 -1 -1 79 256;
#X obj -525 223 timer;
#X obj -525 352 pack;
#N canvas 756 145 604 475 vaEtViens 0;
#X msg -202 286 bang;
#X obj -201 263 bng 15 250 50 0 empty empty empty 17 7 0 10 -262144
-1 -1;
#X msg -119 293 bang;
#X obj -119 269 bng 15 250 50 0 empty empty empty 17 7 0 10 -262144
-1 -1;
#X text -182 261 +;
#X text -97 266 -;
#X obj -71 143 tgl 15 0 empty empty empty 17 7 0 10 -262144 -1 -1 1
1;
#X obj -173 191 change;
#X obj -120 238 spigot;
#X msg -174 158 1;
#X msg -183 243 0;
#X obj -212 77 t b b b;
#X obj -71 92 loadbang;
#X msg -71 118 1;
#X obj -214 37 inlet;
#X obj -212 520 outlet;
#X msg -140 395 2;
#X msg -198 334 1;
#X obj -70 182 metro 5000;
#X obj -33 353 outlet;
#X msg -173 106 500;
#X obj -175 132 delay 500;
#X obj -195 428 cyclone/counter 2 1 99;
#X connect 0 0 17 0;
#X connect 1 0 0 0;
#X connect 2 0 17 0;
#X connect 2 0 19 0;
#X connect 3 0 2 0;
#X connect 6 0 18 0;
#X connect 7 0 8 1;
#X connect 8 0 3 0;
#X connect 9 0 7 0;
#X connect 10 0 7 0;
#X connect 11 0 1 0;
#X connect 11 1 10 0;
#X connect 11 2 20 0;
#X connect 12 0 13 0;
#X connect 13 0 6 0;
#X connect 14 0 11 0;
#X connect 16 0 22 1;
#X connect 17 0 22 0;
#X connect 18 0 8 0;
#X connect 20 0 21 0;
#X connect 21 0 9 0;
#X connect 22 0 15 0;
#X restore -522 119 pd vaEtViens;
#X obj -532 696 int;
#X obj -521 57 > 1;
#X obj -521 82 sel 1;
#X obj -522 30 random 3;
#X obj -522 183 t b b a;
#X obj -524 258 t a, f 9;
#X obj -522 550 vsl 15 128 0 255 0 0 empty empty Green 0 -9 0 10 -262144
-1 -1 6700 1;
#X obj -352 427 line;
#X obj -350 163 nbx 5 14 -1e+37 1e+37 0 0 empty empty empty 0 -8 0
10 -262144 -1 -1 84 256;
#X obj -353 229 timer;
#X obj -353 354 pack;
#N canvas 756 145 604 475 vaEtViens 0;
#X msg -202 286 bang;
#X obj -201 263 bng 15 250 50 0 empty empty empty 17 7 0 10 -262144
-1 -1;
#X msg -119 293 bang;
#X obj -119 269 bng 15 250 50 0 empty empty empty 17 7 0 10 -262144
-1 -1;
#X text -182 261 +;
#X text -97 266 -;
#X obj -71 143 tgl 15 0 empty empty empty 17 7 0 10 -262144 -1 -1 1
1;
#X obj -173 191 change;
#X obj -120 238 spigot;
#X msg -174 158 1;
#X msg -183 243 0;
#X obj -212 77 t b b b;
#X obj -71 92 loadbang;
#X msg -71 118 1;
#X obj -214 37 inlet;
#X obj -212 520 outlet;
#X msg -140 395 2;
#X msg -198 334 1;
#X obj -70 182 metro 5000;
#X obj -33 353 outlet;
#X msg -173 106 500;
#X obj -175 132 delay 500;
#X obj -195 428 cyclone/counter 2 1 99;
#X connect 0 0 17 0;
#X connect 1 0 0 0;
#X connect 2 0 17 0;
#X connect 2 0 19 0;
#X connect 3 0 2 0;
#X connect 6 0 18 0;
#X connect 7 0 8 1;
#X connect 8 0 3 0;
#X connect 9 0 7 0;
#X connect 10 0 7 0;
#X connect 11 0 1 0;
#X connect 11 1 10 0;
#X connect 11 2 20 0;
#X connect 12 0 13 0;
#X connect 13 0 6 0;
#X connect 14 0 11 0;
#X connect 16 0 22 1;
#X connect 17 0 22 0;
#X connect 18 0 8 0;
#X connect 20 0 21 0;
#X connect 21 0 9 0;
#X connect 22 0 15 0;
#X restore -350 125 pd vaEtViens;
#X obj -349 698 int;
#X obj -349 63 > 1;
#X obj -349 88 sel 1;
#X obj -350 36 random 3;
#X obj -350 189 t b b a;
#X obj -352 264 t a, f 9;
#X obj -350 556 vsl 15 128 0 255 0 0 empty empty blue 0 -9 0 10 -262144
-1 -1 632 1;
#X obj -508 289 tabread arrayG_\$0;
#X obj -336 292 tabread arrayB_\$0;
#X obj -536 736 t b a;
#X obj -348 727 t b a;
#X obj -643 510 * 255;
#X obj -522 506 * 255;
#X obj -354 506 * 255;
#X obj -523 458 + 0.2;
#X obj -354 459 + 0.2;
#X obj -435 78 loadbang;
#X msg -766 458 255 255 255;
#X obj -724 815 cyclone/zl reg;
#X obj -724 780 r draw;
#X obj -759 152 line;
#X floatatom -775 392 5 0 0 0 - - -, f 5;
#X obj -752 76 t b;
#X obj -702 377 line;
#X obj -698 298 sel 1;
#X msg -745 351 set \$1;
#X obj -700 270 >= 2;
#X obj -743 204 t a a a;
#X obj -762 419 t b a;
#X obj -644 455 + 0.2;
#X obj -628 319 min 200;
#X obj -508 319 min 200;
#X obj -335 322 min 200;
#X msg -761 109 2 22;
#X msg -697 351 0.2 44;
#X obj -252 22 outlet;
#X connect 0 0 76 0;
#X connect 1 0 27 0;
#X connect 2 0 7 0;
#X connect 3 0 28 0;
#X connect 4 0 0 0;
#X connect 5 0 10 0;
#X connect 6 0 1 0;
#X connect 7 0 26 0;
#X connect 8 0 26 0;
#X connect 9 0 65 1;
#X connect 10 0 20 0;
#X connect 10 0 21 0;
#X connect 10 0 22 0;
#X connect 11 0 10 0;
#X connect 12 0 77 0;
#X connect 13 0 9 0;
#X connect 15 0 26 0;
#X connect 16 0 9 0;
#X connect 23 0 24 0;
#X connect 24 0 6 0;
#X connect 25 0 23 0;
#X connect 26 0 25 0;
#X connect 26 0 69 0;
#X connect 26 1 38 0;
#X connect 26 2 50 0;
#X connect 26 3 82 0;
#X connect 27 0 3 0;
#X connect 27 1 3 1;
#X connect 27 2 12 0;
#X connect 28 0 4 1;
#X connect 29 0 13 0;
#X connect 30 0 61 0;
#X connect 31 0 39 0;
#X connect 32 0 40 0;
#X connect 33 0 30 0;
#X connect 34 0 31 0;
#X connect 35 0 56 0;
#X connect 36 0 37 0;
#X connect 37 0 34 0;
#X connect 38 0 36 0;
#X connect 39 0 32 0;
#X connect 39 1 32 1;
#X connect 39 2 54 0;
#X connect 40 0 33 1;
#X connect 41 0 35 0;
#X connect 42 0 62 0;
#X connect 43 0 51 0;
#X connect 44 0 52 0;
#X connect 45 0 42 0;
#X connect 46 0 43 0;
#X connect 47 0 57 0;
#X connect 48 0 49 0;
#X connect 49 0 46 0;
#X connect 50 0 48 0;
#X connect 51 0 44 0;
#X connect 51 1 44 1;
#X connect 51 2 55 0;
#X connect 52 0 45 1;
#X connect 53 0 47 0;
#X connect 54 0 78 0;
#X connect 55 0 79 0;
#X connect 56 0 9 0;
#X connect 56 1 9 1;
#X connect 57 0 9 0;
#X connect 57 1 9 2;
#X connect 58 0 29 0;
#X connect 59 0 41 0;
#X connect 60 0 53 0;
#X connect 61 0 59 0;
#X connect 62 0 60 0;
#X connect 63 0 6 0;
#X connect 63 0 34 0;
#X connect 63 0 46 0;
#X connect 64 0 14 0;
#X connect 65 0 14 0;
#X connect 66 0 65 0;
#X connect 67 0 74 0;
#X connect 68 0 75 0;
#X connect 69 0 80 0;
#X connect 70 0 68 0;
#X connect 71 0 81 0;
#X connect 72 0 70 0;
#X connect 73 0 71 0;
#X connect 74 0 73 0;
#X connect 74 1 72 0;
#X connect 74 2 68 0;
#X connect 75 0 61 0;
#X connect 75 0 62 0;
#X connect 75 0 76 0;
#X connect 75 1 61 1;
#X connect 75 1 62 1;
#X connect 75 1 76 1;
#X connect 76 0 58 0;
#X connect 77 0 4 0;
#X connect 78 0 33 0;
#X connect 79 0 45 0;
#X connect 80 0 67 0;
#X connect 81 0 70 0;
