#N canvas 0 22 450 300 10;
#X obj -187 270 pack 0 0;
#X msg -63 320 save;
#X floatatom -127 519 5 0 0 0 - - -, f 5;
#X floatatom -5 223 5 0 0 0 - - -, f 5;
#X msg -25 407 index4 0 0 0 0 \, index3 0 0 0 0 \, index2 0 0 0 0 \,
index1 0 0 0 0 \, ratio2 2.05 \, ratio3 0.5 \, ratio4 0.5 \, ratio1
1.02 \, vol4 0.38 \, vol3 0.1 \, vol2 0.35 \, vol1 0.7 \, R4 0 \, S4
0 \, D4 94 \, A4 4 \, R3 0 \, S3 0 \, D3 0 \, A3 0 \, R2 292 \, S2
25 \, D2 12 \, A2 115.91 \, R1 506 \, S1 14 \, D1 63 \, A1 152.49 \,
;
#X obj -63 347 t a b;
#X msg -188 19 bang;
#X obj -187 235 makenote 80 100;
#X floatatom -86 188 5 0 0 0 - - -, f 5;
#X obj -187 207 rj/m_majorscale 48;
#X obj -188 323 rj/s_fm4 MYFM$;
#X obj -108 379 rj/u_cocollect;
#X obj -187 110 cyclone/counter 2 1 14;
#X obj -144 174 + 48;
#X obj -188 144 t a b;
#X obj -144 145 cyclone/drunk 24 6;
#X obj -106 288 r \$0-fm4;
#X obj -108 487 s \$0-GUI;
#N canvas 439 61 371 458 fmgui 0;
#X obj 178 355 outlet;
#X obj 22 13 inlet;
#X text 20 212 ---------------------;
#X obj 22 34 rj/g_nbx ratio1;
#X obj 22 66 rj/g_nbx vol1;
#X obj 22 100 rj/g_nbx A1;
#X obj 22 130 rj/g_nbx D1;
#X obj 22 160 rj/g_nbx S1;
#X obj 22 190 rj/g_nbx R1;
#X obj 22 224 rj/g_nbx ratio3;
#X obj 22 258 rj/g_nbx vol3;
#X obj 22 286 rj/g_nbx A3;
#X obj 22 316 rj/g_nbx D3;
#X obj 22 346 rj/g_nbx S3;
#X obj 22 376 rj/g_nbx R3;
#X obj 102 34 rj/g_nbx ratio2;
#X obj 102 66 rj/g_nbx vol2;
#X obj 102 100 rj/g_nbx A2;
#X obj 102 130 rj/g_nbx D2;
#X obj 102 160 rj/g_nbx S2;
#X obj 101 190 rj/g_nbx R2;
#X obj 102 224 rj/g_nbx ratio4;
#X obj 102 258 rj/g_nbx vol4;
#X obj 102 287 rj/g_nbx A4;
#X obj 102 316 rj/g_nbx D4;
#X obj 102 346 rj/g_nbx S4;
#X obj 102 376 rj/g_nbx R4;
#X obj 178 34 rj/g_hsl4 index1 0 2;
#X obj 180 112 rj/g_hsl4 index2 0 2;
#X obj 178 192 rj/g_hsl4 index3 0 2;
#X obj 178 270 rj/g_hsl4 index4 0 2;
#X obj 300 423 outlet;
#X obj 309 400 bng 15 250 50 0 empty empty empty 17 7 0 10 -262144
-1 -1;
#X obj 304 345 metro 200;
#X obj 373 345 tgl 15 0 empty empty empty 17 7 0 10 -262144 -1 -1 0
1;
#X obj 313 374 + 180;
#X obj 355 373 cyclone/drunk 80 10;
#X obj 218 393 outlet;
#X msg 225 356 save;
#X connect 1 0 3 0;
#X connect 3 0 4 0;
#X connect 4 0 5 0;
#X connect 5 0 6 0;
#X connect 6 0 7 0;
#X connect 7 0 8 0;
#X connect 8 0 9 0;
#X connect 9 0 10 0;
#X connect 10 0 11 0;
#X connect 11 0 12 0;
#X connect 12 0 13 0;
#X connect 13 0 14 0;
#X connect 14 0 15 0;
#X connect 15 0 16 0;
#X connect 16 0 17 0;
#X connect 17 0 18 0;
#X connect 18 0 19 0;
#X connect 19 0 20 0;
#X connect 20 0 21 0;
#X connect 21 0 22 0;
#X connect 22 0 23 0;
#X connect 23 0 24 0;
#X connect 24 0 25 0;
#X connect 25 0 26 0;
#X connect 26 0 27 0;
#X connect 27 0 28 0;
#X connect 28 0 29 0;
#X connect 29 0 30 0;
#X connect 30 0 0 0;
#X connect 32 0 31 0;
#X connect 33 0 32 0;
#X connect 33 0 36 0;
#X connect 34 0 33 0;
#X connect 35 0 33 1;
#X connect 36 0 35 0;
#X connect 38 0 37 0;
#X restore 76 216 pd fmgui;
#X obj 74 191 r \$0-GUI;
#X obj 75 271 s \$0-fm4;
#X obj -187 585 outlet~;
#X obj -108 410 outlet;
#X obj -108 454 inlet;
#X obj -187 522 *~ 0.5;
#X obj -188 87 cyclone/speedlim 75;
#X obj 126 244 s \$0-bang;
#X obj -170 58 r \$0-bang;
#X obj 121 333 s \$0-save;
#X obj -24 320 r \$0-save;
#X obj -189 -10 inlet;
#X connect 0 0 10 0;
#X connect 1 0 5 0;
#X connect 2 0 24 1;
#X connect 3 0 7 2;
#X connect 4 0 17 0;
#X connect 5 0 10 1;
#X connect 5 1 11 1;
#X connect 6 0 25 0;
#X connect 7 0 0 0;
#X connect 7 1 0 1;
#X connect 8 0 9 1;
#X connect 9 0 7 0;
#X connect 10 0 24 0;
#X connect 10 2 11 0;
#X connect 11 0 22 0;
#X connect 12 0 14 0;
#X connect 13 0 8 0;
#X connect 14 0 9 0;
#X connect 14 1 15 0;
#X connect 15 0 13 0;
#X connect 16 0 10 1;
#X connect 18 0 20 0;
#X connect 18 1 28 0;
#X connect 18 2 26 0;
#X connect 19 0 18 0;
#X connect 23 0 17 0;
#X connect 24 0 21 0;
#X connect 25 0 12 0;
#X connect 27 0 25 0;
#X connect 29 0 5 0;
#X connect 30 0 6 0;
