#N canvas 275 189 1084 498 10;
#X obj -642 379 line;
#X obj -643 161 nbx 5 14 -1e+37 1e+37 0 0 empty empty empty 0 -8 0
10 -262144 -1 -1 61 256;
#X obj -632 -107 tgl 15 0 empty empty empty 17 7 0 10 -262144 -1 -1
0 1;
#X obj -646 227 timer;
#X obj -642 353 pack;
#X obj -154 -61 loadbang;
#X obj -187 270 pack 0 0;
#X msg -63 320 save;
#X floatatom -127 519 5 0 0 0 - - -, f 5;
#X floatatom -5 223 5 0 0 0 - - -, f 5;
#X msg -25 407 index4 0 0 0 0 \, index3 0 0 0 0 \, index2 0 0 0 0 \,
index1 0 0 0 0 \, ratio2 2.05 \, ratio3 0.5 \, ratio4 0.5 \, ratio1
1.02 \, vol4 0.38 \, vol3 0.1 \, vol2 0.35 \, vol1 0.7 \, R4 0 \, S4
0 \, D4 94 \, A4 4 \, R3 0 \, S3 0 \, D3 0 \, A3 0 \, R2 292 \, S2
25 \, D2 12 \, A2 115.91 \, R1 506 \, S1 14 \, D1 63 \, A1 152.49 \,
;
#X obj -63 347 t a b;
#X msg -188 19 bang;
#X obj -187 235 makenote 80 100;
#X floatatom -86 188 5 0 0 0 - - -, f 5;
#X obj -187 207 rj/m_majorscale 48;
#X obj -188 323 rj/s_fm4 MYFM$;
#X obj -108 379 rj/u_cocollect;
#N canvas 756 145 604 475 vaEtViens 0;
#X msg -202 286 bang;
#X obj -201 263 bng 15 250 50 0 empty empty empty 17 7 0 10 -262144
-1 -1;
#X msg -119 293 bang;
#X obj -119 269 bng 15 250 50 0 empty empty empty 17 7 0 10 -262144
-1 -1;
#X text -182 261 +;
#X text -97 266 -;
#X obj -71 143 tgl 15 0 empty empty empty 17 7 0 10 -262144 -1 -1 1
1;
#X obj -173 191 change;
#X obj -120 238 spigot;
#X msg -174 158 1;
#X msg -183 243 0;
#X obj -212 77 t b b b;
#X obj -71 92 loadbang;
#X msg -71 118 1;
#X obj -214 37 inlet;
#X obj -212 520 outlet;
#X msg -140 395 2;
#X msg -198 334 1;
#X obj -70 182 metro 5000;
#X obj -33 353 outlet;
#X msg -173 106 500;
#X obj -175 132 delay 500;
#X obj -195 428 cyclone/counter 2 1 99;
#X connect 0 0 17 0;
#X connect 1 0 0 0;
#X connect 2 0 17 0;
#X connect 2 0 19 0;
#X connect 3 0 2 0;
#X connect 6 0 18 0;
#X connect 7 0 8 1;
#X connect 8 0 3 0;
#X connect 9 0 7 0;
#X connect 10 0 7 0;
#X connect 11 0 1 0;
#X connect 11 1 10 0;
#X connect 11 2 20 0;
#X connect 12 0 13 0;
#X connect 13 0 6 0;
#X connect 14 0 11 0;
#X connect 16 0 22 1;
#X connect 17 0 22 0;
#X connect 18 0 8 0;
#X connect 20 0 21 0;
#X connect 21 0 9 0;
#X connect 22 0 15 0;
#X restore -643 123 pd vaEtViens;
#X obj -187 110 cyclone/counter 2 1 14;
#X obj -144 174 + 48;
#X obj -188 144 t a b;
#X obj -632 -75 metro 200;
#X obj -621 -56 bng 15 250 50 0 empty empty empty 17 7 0 10 -262144
-1 -1;
#X obj -144 145 cyclone/drunk 24 6;
#X obj -106 288 r \$0-fm4;
#X obj -108 487 s \$0-GUI;
#N canvas 439 61 371 458 fmgui 1;
#X obj 178 355 outlet;
#X obj 22 13 inlet;
#X text 20 212 ---------------------;
#X obj 22 34 rj/g_nbx ratio1;
#X obj 22 66 rj/g_nbx vol1;
#X obj 22 100 rj/g_nbx A1;
#X obj 22 130 rj/g_nbx D1;
#X obj 22 160 rj/g_nbx S1;
#X obj 22 190 rj/g_nbx R1;
#X obj 22 224 rj/g_nbx ratio3;
#X obj 22 258 rj/g_nbx vol3;
#X obj 22 286 rj/g_nbx A3;
#X obj 22 316 rj/g_nbx D3;
#X obj 22 346 rj/g_nbx S3;
#X obj 22 376 rj/g_nbx R3;
#X obj 102 34 rj/g_nbx ratio2;
#X obj 102 66 rj/g_nbx vol2;
#X obj 102 100 rj/g_nbx A2;
#X obj 102 130 rj/g_nbx D2;
#X obj 102 160 rj/g_nbx S2;
#X obj 101 190 rj/g_nbx R2;
#X obj 102 224 rj/g_nbx ratio4;
#X obj 102 258 rj/g_nbx vol4;
#X obj 102 287 rj/g_nbx A4;
#X obj 102 316 rj/g_nbx D4;
#X obj 102 346 rj/g_nbx S4;
#X obj 102 376 rj/g_nbx R4;
#X obj 178 34 rj/g_hsl4 index1 0 2;
#X obj 180 112 rj/g_hsl4 index2 0 2;
#X obj 178 192 rj/g_hsl4 index3 0 2;
#X obj 178 270 rj/g_hsl4 index4 0 2;
#X obj 300 423 outlet;
#X obj 309 400 bng 15 250 50 0 empty empty empty 17 7 0 10 -262144
-1 -1;
#X obj 304 345 metro 200;
#X obj 373 345 tgl 15 0 empty empty empty 17 7 0 10 -262144 -1 -1 0
1;
#X obj 313 374 + 180;
#X obj 355 373 cyclone/drunk 80 10;
#X obj 218 393 outlet;
#X msg 225 356 save;
#X connect 1 0 3 0;
#X connect 3 0 4 0;
#X connect 4 0 5 0;
#X connect 5 0 6 0;
#X connect 6 0 7 0;
#X connect 7 0 8 0;
#X connect 8 0 9 0;
#X connect 9 0 10 0;
#X connect 10 0 11 0;
#X connect 11 0 12 0;
#X connect 12 0 13 0;
#X connect 13 0 14 0;
#X connect 14 0 15 0;
#X connect 15 0 16 0;
#X connect 16 0 17 0;
#X connect 17 0 18 0;
#X connect 18 0 19 0;
#X connect 19 0 20 0;
#X connect 20 0 21 0;
#X connect 21 0 22 0;
#X connect 22 0 23 0;
#X connect 23 0 24 0;
#X connect 24 0 25 0;
#X connect 25 0 26 0;
#X connect 26 0 27 0;
#X connect 27 0 28 0;
#X connect 28 0 29 0;
#X connect 29 0 30 0;
#X connect 30 0 0 0;
#X connect 32 0 31 0;
#X connect 33 0 32 0;
#X connect 33 0 36 0;
#X connect 34 0 33 0;
#X connect 35 0 33 1;
#X connect 36 0 35 0;
#X connect 38 0 37 0;
#X restore 76 216 pd fmgui;
#X obj 74 191 r \$0-GUI;
#X obj 75 271 s \$0-fm4;
#X obj -637 780 pack 0 0 0;
#X obj -154 -41 \$0;
#X obj -188 -59 bng 15 250 50 0 empty empty empty 17 7 0 10 -262144
-1 -1;
#X obj -629 290 tabread arrayR_\$0;
#X obj -642 696 int;
#X obj -187 585 outlet~;
#X obj -777 847 outlet;
#X obj -709 -73 inlet;
#X obj -108 410 outlet;
#X obj -108 454 inlet;
#X obj -731 747 loadbang;
#X obj -77 -63 table arrayR_\$0 128;
#X obj 48 -62 table arrayG_\$0 128;
#X obj 178 -62 table arrayB_\$0 128;
#X msg -80 -39 \; arrayR_\$1 sinesum 160 0.1 0.2 0.1 0.5;
#X msg -81 -1 \; arrayG_\$1 cosinesum 160 0.1 0.1 0.1 0.5;
#X msg -83 39 \; arrayB_\$1 sinesum 160 0.2 0.2 0.2 0.2 0.2 0.2 0.2
.;
#X obj -642 61 > 1;
#X obj -642 86 sel 1;
#X obj -643 34 random 3;
#X obj -765 -11 t b b b b b;
#X obj -643 187 t b b a;
#X obj -645 262 t a, f 9;
#X obj -643 554 vsl 15 128 0 255 0 0 empty empty red 0 -9 0 10 -262144
-1 -1 0 1;
#X obj -524 421 line;
#X obj -522 157 nbx 5 14 -1e+37 1e+37 0 0 empty empty empty 0 -8 0
10 -262144 -1 -1 9 256;
#X obj -525 223 timer;
#X obj -525 352 pack;
#N canvas 756 145 604 475 vaEtViens 0;
#X msg -202 286 bang;
#X obj -201 263 bng 15 250 50 0 empty empty empty 17 7 0 10 -262144
-1 -1;
#X msg -119 293 bang;
#X obj -119 269 bng 15 250 50 0 empty empty empty 17 7 0 10 -262144
-1 -1;
#X text -182 261 +;
#X text -97 266 -;
#X obj -71 143 tgl 15 0 empty empty empty 17 7 0 10 -262144 -1 -1 1
1;
#X obj -173 191 change;
#X obj -120 238 spigot;
#X msg -174 158 1;
#X msg -183 243 0;
#X obj -212 77 t b b b;
#X obj -71 92 loadbang;
#X msg -71 118 1;
#X obj -214 37 inlet;
#X obj -212 520 outlet;
#X msg -140 395 2;
#X msg -198 334 1;
#X obj -70 182 metro 5000;
#X obj -33 353 outlet;
#X msg -173 106 500;
#X obj -175 132 delay 500;
#X obj -195 428 cyclone/counter 2 1 99;
#X connect 0 0 17 0;
#X connect 1 0 0 0;
#X connect 2 0 17 0;
#X connect 2 0 19 0;
#X connect 3 0 2 0;
#X connect 6 0 18 0;
#X connect 7 0 8 1;
#X connect 8 0 3 0;
#X connect 9 0 7 0;
#X connect 10 0 7 0;
#X connect 11 0 1 0;
#X connect 11 1 10 0;
#X connect 11 2 20 0;
#X connect 12 0 13 0;
#X connect 13 0 6 0;
#X connect 14 0 11 0;
#X connect 16 0 22 1;
#X connect 17 0 22 0;
#X connect 18 0 8 0;
#X connect 20 0 21 0;
#X connect 21 0 9 0;
#X connect 22 0 15 0;
#X restore -522 119 pd vaEtViens;
#X obj -532 696 int;
#X obj -521 57 > 1;
#X obj -521 82 sel 1;
#X obj -522 30 random 3;
#X obj -522 183 t b b a;
#X obj -524 258 t a, f 9;
#X obj -522 550 vsl 15 128 0 255 0 0 empty empty Green 0 -9 0 10 -262144
-1 -1 8259 1;
#X obj -352 427 line;
#X obj -350 163 nbx 5 14 -1e+37 1e+37 0 0 empty empty empty 0 -8 0
10 -262144 -1 -1 39 256;
#X obj -353 229 timer;
#X obj -353 354 pack;
#N canvas 756 145 604 475 vaEtViens 0;
#X msg -202 286 bang;
#X obj -201 263 bng 15 250 50 0 empty empty empty 17 7 0 10 -262144
-1 -1;
#X msg -119 293 bang;
#X obj -119 269 bng 15 250 50 0 empty empty empty 17 7 0 10 -262144
-1 -1;
#X text -182 261 +;
#X text -97 266 -;
#X obj -71 143 tgl 15 0 empty empty empty 17 7 0 10 -262144 -1 -1 1
1;
#X obj -173 191 change;
#X obj -120 238 spigot;
#X msg -174 158 1;
#X msg -183 243 0;
#X obj -212 77 t b b b;
#X obj -71 92 loadbang;
#X msg -71 118 1;
#X obj -214 37 inlet;
#X obj -212 520 outlet;
#X msg -140 395 2;
#X msg -198 334 1;
#X obj -70 182 metro 5000;
#X obj -33 353 outlet;
#X msg -173 106 500;
#X obj -175 132 delay 500;
#X obj -195 428 cyclone/counter 2 1 99;
#X connect 0 0 17 0;
#X connect 1 0 0 0;
#X connect 2 0 17 0;
#X connect 2 0 19 0;
#X connect 3 0 2 0;
#X connect 6 0 18 0;
#X connect 7 0 8 1;
#X connect 8 0 3 0;
#X connect 9 0 7 0;
#X connect 10 0 7 0;
#X connect 11 0 1 0;
#X connect 11 1 10 0;
#X connect 11 2 20 0;
#X connect 12 0 13 0;
#X connect 13 0 6 0;
#X connect 14 0 11 0;
#X connect 16 0 22 1;
#X connect 17 0 22 0;
#X connect 18 0 8 0;
#X connect 20 0 21 0;
#X connect 21 0 9 0;
#X connect 22 0 15 0;
#X restore -350 125 pd vaEtViens;
#X obj -349 698 int;
#X obj -349 63 > 1;
#X obj -349 88 sel 1;
#X obj -350 36 random 3;
#X obj -350 189 t b b a;
#X obj -352 264 t a, f 9;
#X obj -350 556 vsl 15 128 0 255 0 0 empty empty blue 0 -9 0 10 -262144
-1 -1 3277 1;
#X obj -508 289 tabread arrayG_\$0;
#X obj -336 292 tabread arrayB_\$0;
#X obj -536 736 t b a;
#X obj -348 727 t b a;
#X obj -643 510 * 255;
#X obj -522 506 * 255;
#X obj -354 506 * 255;
#X obj -523 458 + 0.2;
#X obj -354 459 + 0.2;
#X obj -435 78 loadbang;
#X obj -187 522 *~ 0.5;
#X msg -766 458 255 255 255;
#X obj -724 815 cyclone/zl reg;
#X obj -724 780 r draw;
#X obj -759 152 line;
#X floatatom -775 392 5 0 0 0 - - -, f 5;
#X obj -752 76 t b;
#X obj -702 377 line;
#X obj -698 298 sel 1;
#X msg -745 351 set \$1;
#X obj -700 270 >= 2;
#X obj -743 204 t a a a;
#X obj -762 419 t b a;
#X obj -188 87 cyclone/speedlim 75;
#X obj -644 455 + 0.2;
#X obj -628 319 min 200;
#X obj -508 319 min 200;
#X obj -335 322 min 200;
#X msg -761 109 2 22;
#X msg -697 351 0.2 44;
#X obj 126 244 s \$0-bang;
#X obj -170 58 r \$0-bang;
#X obj 121 333 s \$0-save;
#X obj -24 320 r \$0-save;
#X connect 0 0 102 0;
#X connect 1 0 51 0;
#X connect 2 0 22 0;
#X connect 3 0 52 0;
#X connect 4 0 0 0;
#X connect 5 0 31 0;
#X connect 6 0 16 0;
#X connect 7 0 11 0;
#X connect 8 0 88 1;
#X connect 9 0 13 2;
#X connect 10 0 26 0;
#X connect 11 0 16 1;
#X connect 11 1 17 1;
#X connect 12 0 101 0;
#X connect 13 0 6 0;
#X connect 13 1 6 1;
#X connect 14 0 15 1;
#X connect 15 0 13 0;
#X connect 16 0 88 0;
#X connect 16 2 17 0;
#X connect 17 0 38 0;
#X connect 18 0 1 0;
#X connect 19 0 21 0;
#X connect 20 0 14 0;
#X connect 21 0 15 0;
#X connect 21 1 24 0;
#X connect 22 0 50 0;
#X connect 23 0 50 0;
#X connect 24 0 20 0;
#X connect 25 0 16 1;
#X connect 27 0 29 0;
#X connect 27 1 110 0;
#X connect 27 2 108 0;
#X connect 28 0 27 0;
#X connect 30 0 90 1;
#X connect 31 0 44 0;
#X connect 31 0 45 0;
#X connect 31 0 46 0;
#X connect 32 0 31 0;
#X connect 33 0 103 0;
#X connect 34 0 30 0;
#X connect 37 0 50 0;
#X connect 39 0 26 0;
#X connect 40 0 30 0;
#X connect 47 0 48 0;
#X connect 48 0 18 0;
#X connect 49 0 47 0;
#X connect 50 0 49 0;
#X connect 50 0 94 0;
#X connect 50 1 62 0;
#X connect 50 2 74 0;
#X connect 50 4 12 0;
#X connect 51 0 3 0;
#X connect 51 1 3 1;
#X connect 51 2 33 0;
#X connect 52 0 4 1;
#X connect 53 0 34 0;
#X connect 54 0 85 0;
#X connect 55 0 63 0;
#X connect 56 0 64 0;
#X connect 57 0 54 0;
#X connect 58 0 55 0;
#X connect 59 0 80 0;
#X connect 60 0 61 0;
#X connect 61 0 58 0;
#X connect 62 0 60 0;
#X connect 63 0 56 0;
#X connect 63 1 56 1;
#X connect 63 2 78 0;
#X connect 64 0 57 1;
#X connect 65 0 59 0;
#X connect 66 0 86 0;
#X connect 67 0 75 0;
#X connect 68 0 76 0;
#X connect 69 0 66 0;
#X connect 70 0 67 0;
#X connect 71 0 81 0;
#X connect 72 0 73 0;
#X connect 73 0 70 0;
#X connect 74 0 72 0;
#X connect 75 0 68 0;
#X connect 75 1 68 1;
#X connect 75 2 79 0;
#X connect 76 0 69 1;
#X connect 77 0 71 0;
#X connect 78 0 104 0;
#X connect 79 0 105 0;
#X connect 80 0 30 0;
#X connect 80 1 30 1;
#X connect 81 0 30 0;
#X connect 81 1 30 2;
#X connect 82 0 53 0;
#X connect 83 0 65 0;
#X connect 84 0 77 0;
#X connect 85 0 83 0;
#X connect 86 0 84 0;
#X connect 87 0 18 0;
#X connect 87 0 58 0;
#X connect 87 0 70 0;
#X connect 88 0 35 0;
#X connect 89 0 36 0;
#X connect 90 0 36 0;
#X connect 91 0 90 0;
#X connect 92 0 99 0;
#X connect 93 0 100 0;
#X connect 94 0 106 0;
#X connect 95 0 93 0;
#X connect 96 0 107 0;
#X connect 97 0 95 0;
#X connect 98 0 96 0;
#X connect 99 0 98 0;
#X connect 99 1 97 0;
#X connect 99 2 93 0;
#X connect 100 0 85 0;
#X connect 100 0 86 0;
#X connect 100 0 102 0;
#X connect 100 1 85 1;
#X connect 100 1 86 1;
#X connect 100 1 102 1;
#X connect 101 0 19 0;
#X connect 102 0 82 0;
#X connect 103 0 4 0;
#X connect 104 0 57 0;
#X connect 105 0 69 0;
#X connect 106 0 92 0;
#X connect 107 0 95 0;
#X connect 109 0 101 0;
#X connect 111 0 11 0;
